<svg width="33" height="32" viewBox="0 0 33 32" fill="none" xmlns="http://www.w3.org/2000/svg">
<g id="ic_kolsearch_meiti_instagram">
<g id="Group 427318875">
<path id="Vector" d="M16.5039 4.00342C11.494 4.00342 10.0288 4.00859 9.74402 4.03221C8.7159 4.11767 8.07615 4.27955 7.37917 4.62656C6.84204 4.89328 6.41843 5.20245 6.00035 5.63585C5.23896 6.42622 4.77751 7.3986 4.61046 8.55444C4.52925 9.11556 4.50562 9.23 4.50082 12.0962C4.49897 13.0516 4.50082 14.3089 4.50082 15.9954C4.50082 21.0013 4.50636 22.465 4.53035 22.7492C4.61341 23.7497 4.77031 24.3791 5.10255 25.0676C5.73751 26.3855 6.95021 27.3748 8.37886 27.744C8.87354 27.8714 9.4199 27.9415 10.1213 27.9747C10.4185 27.9876 13.4474 27.9969 16.4783 27.9969C19.5091 27.9969 22.5399 27.9932 22.8297 27.9784C23.6418 27.9402 24.1134 27.8769 24.6349 27.7422C26.0728 27.3711 27.2633 26.3966 27.9112 25.0602C28.237 24.3883 28.4022 23.7349 28.4769 22.7867C28.4932 22.58 28.5 19.2839 28.5 15.9923C28.5 12.7001 28.4926 9.41016 28.4764 9.20343C28.4007 8.23991 28.2355 7.59204 27.8992 6.90724C27.6232 6.34667 27.3168 5.92804 26.872 5.5C26.0781 4.74174 25.1072 4.28029 23.9503 4.11343C23.3897 4.0324 23.278 4.0084 20.4096 4.00342H16.5039Z" fill="url(#paint0_radial_1004_6623)"/>
<path id="Vector_2" d="M16.5039 4.00342C11.494 4.00342 10.0288 4.00859 9.74402 4.03221C8.7159 4.11767 8.07615 4.27955 7.37917 4.62656C6.84204 4.89328 6.41843 5.20245 6.00035 5.63585C5.23896 6.42622 4.77751 7.3986 4.61046 8.55444C4.52925 9.11556 4.50562 9.23 4.50082 12.0962C4.49897 13.0516 4.50082 14.3089 4.50082 15.9954C4.50082 21.0013 4.50636 22.465 4.53035 22.7492C4.61341 23.7497 4.77031 24.3791 5.10255 25.0676C5.73751 26.3855 6.95021 27.3748 8.37886 27.744C8.87354 27.8714 9.4199 27.9415 10.1213 27.9747C10.4185 27.9876 13.4474 27.9969 16.4783 27.9969C19.5091 27.9969 22.5399 27.9932 22.8297 27.9784C23.6418 27.9402 24.1134 27.8769 24.6349 27.7422C26.0728 27.3711 27.2633 26.3966 27.9112 25.0602C28.237 24.3883 28.4022 23.7349 28.4769 22.7867C28.4932 22.58 28.5 19.2839 28.5 15.9923C28.5 12.7001 28.4926 9.41016 28.4764 9.20343C28.4007 8.23991 28.2355 7.59204 27.8992 6.90724C27.6232 6.34667 27.3168 5.92804 26.872 5.5C26.0781 4.74174 25.1072 4.28029 23.9503 4.11343C23.3897 4.0324 23.278 4.0084 20.4096 4.00342H16.5039Z" fill="url(#paint1_radial_1004_6623)"/>
<path id="Vector_3" d="M16.4973 7.14062C14.0911 7.14062 13.7892 7.15115 12.8441 7.19415C11.9009 7.23735 11.2571 7.38667 10.6937 7.60577C10.111 7.83206 9.61672 8.13478 9.12425 8.62742C8.63142 9.11988 8.32871 9.61419 8.10168 10.1967C7.88203 10.7603 7.73252 11.4043 7.69006 12.3471C7.64779 13.2921 7.63672 13.5943 7.63672 16.0005C7.63672 18.4067 7.64742 18.7077 7.69025 19.6528C7.73362 20.596 7.88295 21.2398 8.10186 21.8032C8.32834 22.3859 8.63105 22.8802 9.1237 23.3726C9.61598 23.8655 10.1103 24.1689 10.6926 24.3952C11.2563 24.6143 11.9003 24.7636 12.8434 24.8068C13.7884 24.8498 14.0902 24.8604 16.4962 24.8604C18.9026 24.8604 19.2037 24.8498 20.1487 24.8068C21.0919 24.7636 21.7365 24.6143 22.3002 24.3952C22.8827 24.1689 23.3763 23.8655 23.8686 23.3726C24.3614 22.8802 24.6641 22.3859 24.8911 21.8033C25.1089 21.2398 25.2584 20.5958 25.3027 19.653C25.3452 18.7079 25.3563 18.4067 25.3563 16.0005C25.3563 13.5943 25.3452 13.2923 25.3027 12.3473C25.2584 11.4041 25.1089 10.7603 24.8911 10.1969C24.6641 9.61419 24.3614 9.11988 23.8686 8.62742C23.3757 8.13459 22.8829 7.83188 22.2996 7.60577C21.7348 7.38667 21.0906 7.23735 20.1474 7.19415C19.2024 7.15115 18.9015 7.14062 16.4946 7.14062H16.4973ZM15.7025 8.73725C15.9384 8.73688 16.2016 8.73725 16.4973 8.73725C18.8629 8.73725 19.1433 8.74574 20.0775 8.78819C20.9413 8.82769 21.4101 8.97203 21.7224 9.0933C22.1359 9.25389 22.4307 9.44585 22.7406 9.75595C23.0507 10.066 23.2426 10.3614 23.4036 10.7748C23.5249 11.0868 23.6694 11.5556 23.7087 12.4194C23.7512 13.3534 23.7604 13.634 23.7604 15.9985C23.7604 18.3629 23.7512 18.6435 23.7087 19.5775C23.6692 20.4413 23.5249 20.9102 23.4036 21.2221C23.243 21.6356 23.0507 21.93 22.7406 22.2399C22.4305 22.55 22.1361 22.7419 21.7224 22.9025C21.4105 23.0243 20.9413 23.1683 20.0775 23.2078C19.1435 23.2503 18.8629 23.2595 16.4973 23.2595C14.1316 23.2595 13.8512 23.2503 12.9172 23.2078C12.0534 23.1679 11.5845 23.0236 11.272 22.9023C10.8586 22.7418 10.5632 22.5498 10.2531 22.2397C9.94305 21.9296 9.75109 21.635 9.59014 21.2214C9.46887 20.9094 9.32434 20.4406 9.28502 19.5767C9.24257 18.6428 9.23408 18.3622 9.23408 15.9963C9.23408 13.6303 9.24257 13.3512 9.28502 12.4172C9.32452 11.5534 9.46887 11.0846 9.59014 10.7722C9.75072 10.3588 9.94305 10.0635 10.2531 9.75336C10.5632 9.44327 10.8586 9.2513 11.272 9.09035C11.5843 8.96853 12.0534 8.82455 12.9172 8.78487C13.7345 8.74795 14.0513 8.73688 15.7025 8.73503V8.73725ZM21.2267 10.2084C20.6397 10.2084 20.1635 10.684 20.1635 11.2712C20.1635 11.8581 20.6397 12.3344 21.2267 12.3344C21.8136 12.3344 22.2898 11.8581 22.2898 11.2712C22.2898 10.6842 21.8136 10.208 21.2267 10.208V10.2084ZM16.4973 11.4506C13.9846 11.4506 11.9474 13.4878 11.9474 16.0005C11.9474 18.5132 13.9846 20.5495 16.4973 20.5495C19.01 20.5495 21.0465 18.5132 21.0465 16.0005C21.0465 13.4878 19.0098 11.4506 16.4971 11.4506H16.4973ZM16.4973 13.0472C18.1283 13.0472 19.4506 14.3694 19.4506 16.0005C19.4506 17.6315 18.1283 18.9538 16.4973 18.9538C14.8662 18.9538 13.544 17.6315 13.544 16.0005C13.544 14.3694 14.8662 13.0472 16.4973 13.0472V13.0472Z" fill="white"/>
</g>
</g>
<defs>
<radialGradient id="paint0_radial_1004_6623" cx="0" cy="0" r="1" gradientUnits="userSpaceOnUse" gradientTransform="translate(10.875 29.8449) rotate(-90) scale(23.7793 22.1226)">
<stop stop-color="#FFDD55"/>
<stop offset="0.1" stop-color="#FFDD55"/>
<stop offset="0.5" stop-color="#FF543E"/>
<stop offset="1" stop-color="#C837AB"/>
</radialGradient>
<radialGradient id="paint1_radial_1004_6623" cx="0" cy="0" r="1" gradientUnits="userSpaceOnUse" gradientTransform="translate(0.479873 5.73187) rotate(78.6776) scale(10.6296 43.8265)">
<stop stop-color="#3771C8"/>
<stop offset="0.128" stop-color="#3771C8"/>
<stop offset="1" stop-color="#6600FF" stop-opacity="0"/>
</radialGradient>
</defs>
</svg>
