<svg width="80" height="40" viewBox="0 0 80 40" fill="none" xmlns="http://www.w3.org/2000/svg">
<g id="img_yidong_logo">
<path id="Rectangle 9" d="M0 10C0 4.47715 4.47715 0 10 0H70C75.5228 0 80 4.47715 80 10V30C80 35.5228 75.5228 40 70 40H10C4.47715 40 0 35.5228 0 30V10Z" fill="#283551"/>
<g id="Group 115">
<g id="Vector">
<path d="M50.9448 7.99634H39.9334V7.9974C33.3369 8.03154 28 13.3896 28 19.9941C28 26.6198 33.3712 31.9909 39.9968 31.9909C44.5476 31.9909 48.5015 29.4559 50.532 25.7364C51.0206 24.8413 51.3992 23.8761 51.6485 22.8597L45.2932 21.3005C45.1808 21.7591 45.0099 22.1951 44.7884 22.6009C43.8588 24.3038 42.059 25.4472 39.9968 25.4472C36.9852 25.4472 34.5437 23.0058 34.5437 19.9941C34.5437 16.9824 36.9852 14.541 39.9968 14.541V14.5401H44.401C48.015 14.5401 50.9448 11.6103 50.9448 7.99634Z" fill="url(#paint0_linear_779_10316)"/>
<path d="M42.6389 22.5503H46.0918C45.243 25.053 43.1158 26.6414 40.185 26.7483V32.0035C47.0857 31.8207 52 26.7639 52 19.7829C52 18.5585 50.9408 17.646 49.7164 17.646H42.6389V22.5503Z" fill="url(#paint1_linear_779_10316)"/>
<path d="M47.5232 23.995H42.0328C40.2796 23.995 38.8583 22.5737 38.8583 20.8205C38.8583 19.0673 40.2796 17.646 42.0328 17.646H47.5232V23.995Z" fill="url(#paint2_linear_779_10316)"/>
</g>
<g id="Mask group">
<mask id="mask0_779_10316" style="mask-type:alpha" maskUnits="userSpaceOnUse" x="28" y="7" width="24" height="26">
<g id="Vector_2">
<path d="M50.9448 7.99634H39.9334V7.9974C33.3369 8.03154 28 13.3896 28 19.9941C28 26.6198 33.3712 31.9909 39.9968 31.9909C44.5476 31.9909 48.5015 29.4559 50.532 25.7364C51.0206 24.8413 51.3992 23.8761 51.6485 22.8597L45.2932 21.3005C45.1808 21.7591 45.0099 22.1951 44.7884 22.6009C43.8588 24.3038 42.059 25.4472 39.9968 25.4472C36.9852 25.4472 34.5437 23.0058 34.5437 19.9941C34.5437 16.9824 36.9852 14.541 39.9968 14.541V14.5401H44.401C48.015 14.5401 50.9448 11.6103 50.9448 7.99634Z" fill="url(#paint3_linear_779_10316)"/>
<path d="M42.6389 22.5503H46.0918C45.243 25.053 43.1158 26.6414 40.185 26.7483V32.0035C47.0857 31.8207 52 26.7639 52 19.7829C52 18.5585 50.9408 17.646 49.7164 17.646H42.6389V22.5503Z" fill="url(#paint4_linear_779_10316)"/>
<path d="M47.5232 23.995H42.0328C40.2796 23.995 38.8583 22.5737 38.8583 20.8205C38.8583 19.0673 40.2796 17.646 42.0328 17.646H47.5232V23.995Z" fill="url(#paint5_linear_779_10316)"/>
</g>
</mask>
<g mask="url(#mask0_779_10316)">
<path id="Vector 10" d="M34.1323 19.115C33.7477 28.606 42.3695 30.3824 46.7285 30.0843L43.4724 32.6608L36.7177 33.8702L32.537 32.0368L27.0447 24.7422L28.1038 18.5813L30.7593 13.195L34.1323 19.115Z" fill="url(#paint6_linear_779_10316)"/>
<path id="Vector 15" d="M46.6024 30.1309C35.7797 33.9598 33.8472 25.3997 34.1182 20.1301L32.2676 20.4243L34.1182 29.2428C34.6549 30.6442 35.7642 33.4829 35.9078 33.6265C36.0514 33.7701 42.9404 31.8747 46.367 30.9091L46.6024 30.1309Z" fill="url(#paint7_linear_779_10316)"/>
<path id="Vector 9" d="M36.3754 31.8023C31.4939 25.0281 34.1979 18.6109 36.1349 16.2034L37.081 15.6139L39.5365 15.1703C40.5881 15.6546 42.9005 16.112 43.0998 16.112C43.3488 16.112 48.4586 15.8298 49.4133 16.2034C50.177 16.5022 52.6191 17.6202 53.8505 17.2328L56.9637 14.2856V10.7574L54.8882 7.22917C52.4946 6.73107 47.6408 5.73486 47.3752 5.73486C47.1095 5.73486 40.9828 6.28831 37.9527 6.56504C36.2924 6.78641 32.9136 7.22917 32.6811 7.22917C32.4487 7.22917 30.0384 10.4668 28.8623 12.0857C28.1982 14.4794 26.8616 19.3331 26.8284 19.5988C26.7952 19.8644 29.8308 28.2602 31.3528 32.4249L36.3754 31.8023Z" fill="url(#paint8_linear_779_10316)"/>
<path id="Vector 13" d="M42.8848 14.6177C47.1914 14.7351 49.1491 10.3273 49.5895 8.1087L50.7152 6.88525L52.2812 7.5704C52.3139 8.48394 52.3596 10.4579 52.2812 11.0451C52.1834 11.7792 50.7641 14.0305 50.1279 14.6177C49.4917 15.205 48.2192 15.4987 47.9745 15.4987H43.8636L42.8848 14.6177Z" fill="url(#paint9_linear_779_10316)"/>
<path id="Vector 14" opacity="0.1" d="M34.7239 18.5291C33.2597 20.2431 31.542 25.1372 36.0469 31.3351C34.4616 29.154 32.2773 24.0204 34.7239 18.5291Z" fill="white"/>
<path id="Vector 12" opacity="0.1" d="M31.7323 11.949C24.1821 24.9045 36.7086 32.0257 36.7086 32.0257C36.7086 32.0257 28.3998 30.6755 28.3998 30.3373C28.3998 29.9145 22.34 24.7002 21.6354 23.4319C20.9307 22.1636 23.4675 16.9493 23.4675 16.2446C23.4675 15.54 46.6721 -13.6863 31.7323 11.949Z" fill="white"/>
</g>
</g>
</g>
</g>
<defs>
<linearGradient id="paint0_linear_779_10316" x1="38.0817" y1="17.6199" x2="51.0364" y2="30.929" gradientUnits="userSpaceOnUse">
<stop stop-color="#FFD56A"/>
<stop offset="1" stop-color="#03E5FF"/>
</linearGradient>
<linearGradient id="paint1_linear_779_10316" x1="38.0817" y1="17.6199" x2="51.0364" y2="30.929" gradientUnits="userSpaceOnUse">
<stop stop-color="#FFD56A"/>
<stop offset="1" stop-color="#03E5FF"/>
</linearGradient>
<linearGradient id="paint2_linear_779_10316" x1="38.0817" y1="17.6199" x2="51.0364" y2="30.929" gradientUnits="userSpaceOnUse">
<stop stop-color="#FFD56A"/>
<stop offset="1" stop-color="#03E5FF"/>
</linearGradient>
<linearGradient id="paint3_linear_779_10316" x1="35.9444" y1="17.2752" x2="50.7625" y2="20.7776" gradientUnits="userSpaceOnUse">
<stop stop-color="#FFCCD4"/>
<stop offset="1" stop-color="#FF65F0"/>
</linearGradient>
<linearGradient id="paint4_linear_779_10316" x1="35.9444" y1="17.2752" x2="50.7625" y2="20.7776" gradientUnits="userSpaceOnUse">
<stop stop-color="#FFCCD4"/>
<stop offset="1" stop-color="#FF65F0"/>
</linearGradient>
<linearGradient id="paint5_linear_779_10316" x1="35.9444" y1="17.2752" x2="50.7625" y2="20.7776" gradientUnits="userSpaceOnUse">
<stop stop-color="#FFCCD4"/>
<stop offset="1" stop-color="#FF65F0"/>
</linearGradient>
<linearGradient id="paint6_linear_779_10316" x1="33.3015" y1="23.4353" x2="47.1754" y2="36.7679" gradientUnits="userSpaceOnUse">
<stop stop-color="#FFD277"/>
<stop offset="0.644906" stop-color="#FF2FE3"/>
</linearGradient>
<linearGradient id="paint7_linear_779_10316" x1="33.4331" y1="22.0136" x2="42.3293" y2="32.6117" gradientUnits="userSpaceOnUse">
<stop stop-color="#FFCEDC"/>
<stop offset="0.428433" stop-color="#FFAF9A"/>
<stop offset="1" stop-color="#FE32E4"/>
</linearGradient>
<linearGradient id="paint8_linear_779_10316" x1="41.8959" y1="8.59704" x2="41.8959" y2="32.4249" gradientUnits="userSpaceOnUse">
<stop stop-color="#34F3C9"/>
<stop offset="1" stop-color="#9948FA"/>
</linearGradient>
<linearGradient id="paint9_linear_779_10316" x1="50.7667" y1="8.20288" x2="45.9614" y2="15.4987" gradientUnits="userSpaceOnUse">
<stop stop-color="#35F3C9"/>
<stop offset="1" stop-color="white" stop-opacity="0"/>
</linearGradient>
</defs>
</svg>
