<svg width="32" height="33" viewBox="0 0 32 33" fill="none" xmlns="http://www.w3.org/2000/svg">
<g id="ic_privacy_policy">
<g id="Ellipse 31" filter="url(#filter0_b_12_9266)">
<circle cx="16" cy="17" r="15" fill="url(#paint0_linear_12_9266)" fill-opacity="0.25"/>
<circle cx="16" cy="17" r="14.75" stroke="url(#paint1_linear_12_9266)" stroke-width="0.5"/>
</g>
<g id="Group 427318924">
<g id="Frame" clip-path="url(#clip0_12_9266)" filter="url(#filter1_f_12_9266)">
<path id="Vector" d="M16.7773 15.3334C18.0302 15.3334 19.0458 14.3178 19.0458 13.0649C19.0458 11.812 18.0302 10.7964 16.7773 10.7964C15.5244 10.7964 14.5088 11.812 14.5088 13.0649C14.5088 14.3178 15.5244 15.3334 16.7773 15.3334Z" fill="#85F1FF" stroke="#85F1FF" stroke-width="1.2963" stroke-linecap="round" stroke-linejoin="round"/>
<path id="Vector_2" d="M10.2959 22.7867C10.2959 19.923 12.9076 17.6016 16.1292 17.6016" stroke="#85F1FF" stroke-width="1.2963" stroke-linecap="round" stroke-linejoin="round"/>
<path id="Vector_3" d="M22.287 19.5461H17.75V22.7869H22.287V19.5461Z" fill="#85F1FF" stroke="#85F1FF" stroke-width="1.2963" stroke-linecap="round" stroke-linejoin="round"/>
<path id="Vector_4" d="M21 19.5V18.5C21 17.9477 20.5523 17.5 20 17.5C19.4477 17.5 19 17.9477 19 18.5V19.5" stroke="#85F1FF" stroke-width="1.2963" stroke-linecap="round" stroke-linejoin="round"/>
</g>
<g id="Frame_2" clip-path="url(#clip1_12_9266)">
<path id="Vector_5" d="M16.7773 15.3334C18.0302 15.3334 19.0458 14.3178 19.0458 13.0649C19.0458 11.812 18.0302 10.7964 16.7773 10.7964C15.5244 10.7964 14.5088 11.812 14.5088 13.0649C14.5088 14.3178 15.5244 15.3334 16.7773 15.3334Z" fill="#00E1FF" stroke="#00E1FF" stroke-width="1.2963" stroke-linecap="round" stroke-linejoin="round"/>
<path id="Vector_6" d="M10.2959 22.7867C10.2959 19.923 12.9076 17.6016 16.1292 17.6016" stroke="#00E1FF" stroke-width="1.2963" stroke-linecap="round" stroke-linejoin="round"/>
<path id="Vector_7" d="M22.287 19.5461H17.75V22.7869H22.287V19.5461Z" fill="#00E1FF" stroke="#00E1FF" stroke-width="1.2963" stroke-linecap="round" stroke-linejoin="round"/>
<path id="Vector_8" d="M21 19.5V18.5C21 17.9477 20.5523 17.5 20 17.5C19.4477 17.5 19 17.9477 19 18.5V19.5" stroke="#00E1FF" stroke-width="1.2963" stroke-linecap="round" stroke-linejoin="round"/>
</g>
</g>
</g>
<defs>
<filter id="filter0_b_12_9266" x="-6" y="-5" width="44" height="44" filterUnits="userSpaceOnUse" color-interpolation-filters="sRGB">
<feFlood flood-opacity="0" result="BackgroundImageFix"/>
<feGaussianBlur in="BackgroundImage" stdDeviation="3.5"/>
<feComposite in2="SourceAlpha" operator="in" result="effect1_backgroundBlur_12_9266"/>
<feBlend mode="normal" in="SourceGraphic" in2="effect1_backgroundBlur_12_9266" result="shape"/>
</filter>
<filter id="filter1_f_12_9266" x="7" y="7.5" width="18" height="18" filterUnits="userSpaceOnUse" color-interpolation-filters="sRGB">
<feFlood flood-opacity="0" result="BackgroundImageFix"/>
<feBlend mode="normal" in="SourceGraphic" in2="BackgroundImageFix" result="shape"/>
<feGaussianBlur stdDeviation="1" result="effect1_foregroundBlur_12_9266"/>
</filter>
<linearGradient id="paint0_linear_12_9266" x1="25.9078" y1="6.99652" x2="2.6408" y2="26.6587" gradientUnits="userSpaceOnUse">
<stop stop-color="white"/>
<stop offset="1" stop-color="white" stop-opacity="0.42"/>
</linearGradient>
<linearGradient id="paint1_linear_12_9266" x1="22.1844" y1="4.09078" x2="8.6526" y2="29.4629" gradientUnits="userSpaceOnUse">
<stop stop-color="white" stop-opacity="0.5"/>
<stop offset="1" stop-color="white" stop-opacity="0.1"/>
</linearGradient>
<clipPath id="clip0_12_9266">
<rect width="14" height="14" fill="white" transform="translate(9 9.5)"/>
</clipPath>
<clipPath id="clip1_12_9266">
<rect width="14" height="14" fill="white" transform="translate(9 9.5)"/>
</clipPath>
</defs>
</svg>
