<svg width="33" height="32" viewBox="0 0 33 32" fill="none" xmlns="http://www.w3.org/2000/svg">
<g id="ic_kolsearch_meiti_tiktok">
<g id="TikTok">
<mask id="mask0_1004_6631" style="mask-type:alpha" maskUnits="userSpaceOnUse" x="4" y="4" width="25" height="24">
<g id="mask-p3ff31t7oc-2">
<path id="Vector" d="M24.5 4H8.5C6.29086 4 4.5 5.79086 4.5 8V24C4.5 26.2091 6.29086 28 8.5 28H24.5C26.7091 28 28.5 26.2091 28.5 24V8C28.5 5.79086 26.7091 4 24.5 4Z" fill="white"/>
</g>
</mask>
<g mask="url(#mask0_1004_6631)">
<path id="&#231;&#159;&#169;&#229;&#189;&#162;" d="M24.5 4H8.5C6.29086 4 4.5 5.79086 4.5 8V24C4.5 26.2091 6.29086 28 8.5 28H24.5C26.7091 28 28.5 26.2091 28.5 24V8C28.5 5.79086 26.7091 4 24.5 4Z" fill="white" stroke="#F2F4FB"/>
<g id="tiktok-logo">
<path id="&#232;&#183;&#175;&#229;&#190;&#132;" d="M6.9 4H26.1C27.4256 4 28.5 5.07443 28.5 6.4V25.6C28.5 26.9256 27.4256 28 26.1 28H6.9C5.57443 28 4.5 26.9256 4.5 25.6V6.4C4.5 5.07443 5.57443 4 6.9 4Z" fill="#010101"/>
<path id="&#232;&#183;&#175;&#229;&#190;&#132;_2" d="M19.5703 26.0797C20.3006 26.0797 20.8926 25.4925 20.8926 24.7682C20.8926 24.0439 20.3006 23.4565 19.5703 23.4565H19.3711C20.1014 23.4565 20.6934 24.0439 20.6934 24.7682C20.6934 25.4925 20.1014 26.0797 19.3711 26.0797H19.5703Z" fill="#EE1D51"/>
<path id="&#232;&#183;&#175;&#229;&#190;&#132;_3" d="M19.3536 23.4565H19.1544C18.4242 23.4565 17.832 24.0439 17.832 24.7682C17.832 25.4925 18.4242 26.0797 19.1544 26.0797H19.3536C18.6233 26.0797 18.0312 25.4925 18.0312 24.7682C18.0312 24.0439 18.6233 23.4565 19.3536 23.4565Z" fill="#66C8CF"/>
<path id="&#232;&#183;&#175;&#229;&#190;&#132;_4" d="M18.7188 24.7681C18.7188 24.9959 18.8413 25.2065 19.0403 25.3204C19.2393 25.4343 19.4844 25.4343 19.6834 25.3204C19.8824 25.2065 20.005 24.9959 20.005 24.7681C20.005 24.5403 19.8824 24.3297 19.6834 24.2158C19.4844 24.1019 19.2393 24.1019 19.0403 24.2158C18.8413 24.3297 18.7188 24.5403 18.7188 24.7681Z" fill="#010101"/>
<path id="&#229;&#189;&#162;&#231;&#138;&#182;" d="M9.30078 22.8643V23.5291H10.0795V26.0623H10.8586V23.547H11.4925L11.7098 22.8643H9.30078ZM15.6766 22.8643V23.5291H16.4554V26.0623H17.2344V23.547H17.8683L18.0856 22.8643H15.6766ZM11.8549 23.2415C11.8549 23.0332 12.0249 22.8643 12.2349 22.8643C12.4452 22.8643 12.6154 23.0332 12.6154 23.2415C12.6154 23.4499 12.4453 23.6188 12.2349 23.6188C12.0249 23.6187 11.8549 23.4499 11.8549 23.2415ZM11.8549 23.8884H12.6154V26.0623H11.8549V23.8884ZM12.9415 22.8643V26.0623H13.7023V25.2359L13.9378 25.0201L14.6803 26.0803H15.4954L14.4266 24.5351L15.3866 23.6008H14.4629L13.7023 24.3553V22.8643H12.9415ZM21.1466 22.8643V26.0623H21.9075V25.2359L22.1429 25.0201L22.8856 26.0803H23.7008L22.632 24.5351L23.592 23.6008H22.6683L21.9075 24.3553V22.8643H21.1466Z" fill="white"/>
<path id="&#229;&#189;&#162;&#231;&#138;&#182;_2" d="M19.9702 11.7938C21.0208 12.5444 22.308 12.9861 23.6981 12.9861V10.3124C23.435 10.3125 23.1726 10.2851 22.9152 10.2305V12.3351C21.5252 12.3351 20.2382 11.8934 19.1873 11.1428V16.599C19.1873 19.3284 16.9736 21.5409 14.2428 21.5409C13.224 21.5409 12.277 21.2331 11.4902 20.7051C12.3881 21.6226 13.6403 22.1919 15.0255 22.1919C17.7564 22.1919 19.9703 19.9794 19.9703 17.2498V11.7938H19.9702ZM20.936 9.09637C20.399 8.5101 20.0465 7.75237 19.9702 6.91467V6.5708H19.2283C19.415 7.63544 20.052 8.54504 20.936 9.09637ZM13.2174 18.6106C12.9174 18.2175 12.7553 17.7366 12.756 17.2421C12.756 15.9937 13.7686 14.9816 15.0179 14.9816C15.2506 14.9814 15.4821 15.0171 15.704 15.0874V12.354C15.4447 12.3185 15.183 12.3035 14.9214 12.309V14.4366C14.6994 14.3662 14.4679 14.3305 14.235 14.3307C12.9857 14.3307 11.9732 15.3428 11.9732 16.5913C11.9732 17.474 12.4793 18.2384 13.2174 18.6106Z" fill="#EE1D52"/>
<path id="&#232;&#183;&#175;&#229;&#190;&#132;_5" d="M19.1904 11.1428C20.2413 11.8934 21.5282 12.3351 22.9182 12.3351V10.2305C22.1424 10.0654 21.4555 9.66008 20.939 9.09637C20.055 8.54504 19.4181 7.63544 19.2313 6.5708H17.2826V17.2497C17.2782 18.4947 16.2673 19.5027 15.0208 19.5027C14.2862 19.5027 13.6336 19.1528 13.2203 18.6106C12.4823 18.2384 11.9761 17.474 11.9761 16.5913C11.9761 15.3428 12.9887 14.3307 14.2379 14.3307C14.4772 14.3307 14.7079 14.3679 14.9243 14.4366V12.309C12.2416 12.3644 10.084 14.5553 10.084 17.2498C10.084 18.5949 10.6213 19.8143 11.4933 20.7052C12.28 21.2332 13.227 21.541 14.2459 21.541C16.9766 21.541 19.1904 19.3284 19.1904 16.5991V11.1428Z" fill="white"/>
<path id="&#229;&#189;&#162;&#231;&#138;&#182;_3" d="M22.9178 10.2305V9.66143C22.2181 9.66248 21.5322 9.46663 20.9386 9.09627C21.4641 9.67129 22.156 10.0678 22.9178 10.2305ZM19.2309 6.5708C19.2131 6.46907 19.1994 6.36665 19.1899 6.26379V5.91992H16.4992V16.599C16.4949 17.8438 15.4841 18.8518 14.2375 18.8518C13.8714 18.8518 13.5259 18.765 13.2199 18.6106C13.6332 19.1528 14.2858 19.5027 15.0204 19.5027C16.2668 19.5027 17.2778 18.4947 17.2822 17.2497V6.5708H19.2309ZM14.924 12.309V11.7032C14.6991 11.6724 14.4725 11.6571 14.2455 11.6572C11.5145 11.6572 9.30078 13.8698 9.30078 16.599C9.30078 18.3101 10.1708 19.818 11.4929 20.7051C10.621 19.8142 10.0837 18.5948 10.0837 17.2497C10.0837 14.5553 12.2412 12.3644 14.924 12.309Z" fill="#69C9D0"/>
<path id="&#229;&#189;&#162;&#231;&#138;&#182;_4" d="M19.3696 26.0797C20.0999 26.0797 20.692 25.4925 20.692 24.7682C20.692 24.0439 20.0999 23.4565 19.3696 23.4565H19.3516C18.6213 23.4565 18.0293 24.0439 18.0293 24.7682C18.0293 25.4925 18.6213 26.0797 19.3516 26.0797H19.3696ZM18.7176 24.7682C18.7176 24.4159 19.0056 24.1305 19.3608 24.1305C19.7157 24.1305 20.0037 24.4159 20.0037 24.7682C20.0037 25.1205 19.7157 25.4061 19.3608 25.4061C19.0056 25.406 18.7176 25.1205 18.7176 24.7682Z" fill="white"/>
</g>
</g>
</g>
</g>
</svg>
