<svg width="33" height="32" viewBox="0 0 33 32" fill="none" xmlns="http://www.w3.org/2000/svg">
<g id="ic_kolsearch_meiti_twitter">
<rect id="Rectangle 2686" x="4.5" y="4" width="24" height="24" rx="2" fill="#1EA1F2"/>
<path id="&#232;&#183;&#175;&#229;&#190;&#132;" fill-rule="evenodd" clip-rule="evenodd" d="M24.4922 11.0031C23.9031 11.2584 23.2632 11.4423 22.6043 11.5143C23.2901 11.1027 23.8025 10.4554 24.0457 9.69333C23.4159 10.0715 22.7054 10.3478 21.9643 10.4911C21.3461 9.82475 20.4777 9.44673 19.5688 9.44825C17.7514 9.44825 16.2889 10.9318 16.2889 12.7514C16.2889 13.0074 16.3202 13.2626 16.3704 13.5077C13.7278 13.3702 11.269 12.1133 9.60995 10.0519C9.31528 10.5578 9.16066 11.1332 9.16198 11.7187C9.16198 12.8641 9.74086 13.8764 10.6237 14.4698C10.1034 14.4494 9.5954 14.3056 9.14161 14.0502V14.0909C9.13542 15.6596 10.2352 17.0154 11.7713 17.333C11.4895 17.4069 11.1994 17.4448 10.9081 17.4457C10.695 17.4457 10.4921 17.4253 10.2892 17.3948C10.7156 18.7359 11.9483 19.6568 13.3552 19.6856C12.1967 20.6025 10.7616 21.0998 9.28415 21.0965C9.00998 21.0965 8.75618 21.0863 8.49219 21.0557C9.99164 22.0278 11.7414 22.543 13.5283 22.5386C19.5586 22.5386 22.8581 17.5068 22.8581 13.1404C22.8581 12.9972 22.8581 12.8539 22.8479 12.7106C23.4881 12.2379 24.044 11.6607 24.4922 11.0031Z" fill="white"/>
</g>
</svg>
