<svg width="33" height="32" viewBox="0 0 33 32" fill="none" xmlns="http://www.w3.org/2000/svg">
<g id="ic_kolsearch_meiti_youtube">
<path id="Vector" d="M14.2771 19.889V12.1112L20.9438 16.0134L14.2771 19.889ZM29.566 10.6301C29.566 10.6301 29.3049 8.78011 28.506 7.96455C27.4916 6.89455 26.3549 6.89011 25.8338 6.82789C22.1027 6.55566 16.5049 6.55566 16.5049 6.55566H16.4938C16.4938 6.55566 10.896 6.55566 7.1649 6.82789C6.64268 6.89011 5.50713 6.89455 4.49157 7.96455C3.69268 8.78011 3.43268 10.6312 3.43268 10.6312C3.43268 10.6312 3.16602 12.8023 3.16602 14.9746V17.0134C3.16602 19.1868 3.43268 21.3601 3.43268 21.3601C3.43268 21.3601 3.69268 23.2101 4.49157 24.0257C5.50713 25.0957 6.83935 25.0612 7.43268 25.1734C9.56602 25.3812 16.4993 25.4446 16.4993 25.4446C16.4993 25.4446 22.1027 25.4357 25.8338 25.1646C26.356 25.1012 27.4916 25.0968 28.506 24.0268C29.306 23.2112 29.566 21.3601 29.566 21.3601C29.566 21.3601 29.8327 19.1879 29.8327 17.0146V14.9768C29.8327 12.8034 29.566 10.6301 29.566 10.6301V10.6301Z" fill="#FF0000"/>
</g>
</svg>
